<svg width="28" height="28" viewBox="0 0 28 28" fill="none" xmlns="http://www.w3.org/2000/svg">
<path d="M28 25.5769L19.6485 17.224C20.9944 15.3745 21.7184 13.1455 21.7162 10.8581C21.7162 4.87106 16.8451 0 10.8581 0C4.87106 0 0 4.87106 0 10.8581C0 16.8451 4.87106 21.7162 10.8581 21.7162C13.1455 21.7184 15.3745 20.9944 17.224 19.6485L25.5769 28L28 25.5769ZM10.8581 18.2868C9.38862 18.287 7.95212 17.8513 6.73026 17.035C5.50839 16.2187 4.55604 15.0584 3.99364 13.7008C3.43124 12.3433 3.28406 10.8494 3.5707 9.40816C3.85735 7.96693 4.56494 6.64307 5.60401 5.60401C6.64307 4.56494 7.96693 3.85735 9.40816 3.5707C10.8494 3.28406 12.3433 3.43124 13.7008 3.99364C15.0584 4.55604 16.2187 5.50839 17.035 6.73026C17.8513 7.95212 18.287 9.38862 18.2868 10.8581C18.2845 12.8276 17.5011 14.7158 16.1084 16.1084C14.7158 17.5011 12.8276 18.2845 10.8581 18.2868Z" fill="black"/>
</svg>
